<svg xmlns="http://www.w3.org/2000/svg" version="1.1" xmlns:xlink="http://www.w3.org/1999/xlink" xmlns:svgjs="http://svgjs.com/svgjs" width="4096" height="2160" preserveAspectRatio="none" viewBox="0 0 4096 2160"><g mask="url(&quot;#SvgjsMask1014&quot;)" fill="none"><rect width="4096" height="2160" x="0" y="0" fill="rgba(0, 109, 119, 1)"></rect><path d="M1080 455.63C991.3 455.63 893.79 487.82 893.79 540C893.79 599.23 995.2 678.46 1080 678.46C1145.75 678.46 1194.89 602.16 1194.89 540C1194.89 490.75 1141.85 455.63 1080 455.63" stroke="rgba(131, 197, 190, 0.5)" stroke-width="2"></path><path d="M1840.91 0C2010.14 196.67 1971.56 266.6 2084.65 540C2131.11 652.31 2125.32 771.43 2160 771.43C2194.15 771.43 2144.24 623.33 2222.31 540C2414.24 335.12 2470.04 378.08 2700 195C2809.17 108.08 2778.58 44.05 2900.57 0C3048.58 -53.45 3070.28 0 3240 0C3510 0 3510 0 3780 0C3920.4 0 3977.8 -87.26 4060.8 0C4234.63 182.74 4283.84 266.69 4293.66 540C4303.24 806.69 4090.77 839.81 4099.59 1080C4103.94 1198.34 4271.75 1138.83 4320 1257.05C4381.95 1408.83 4320 1438.53 4320 1620C4320 1890 4455 2025 4320 2160C4185 2295 4050 2160 3780 2160C3510 2160 3510 2160 3240 2160C2970 2160 2970 2160 2700 2160C2430 2160 2430 2160 2160 2160C1890 2160 1890 2160 1620 2160C1350 2160 1350 2160 1080 2160C810 2160 810 2160 540 2160C270 2160 135 2295 0 2160C-135 2025 0 1890 0 1620C0 1350 0 1350 0 1080C0 810 0 810 0 540C0 270 -135 135 0 0C135 -135 270 0 540 0C810 0 810 0 1080 0C1350 0 1350 0 1620 0C1730.45 0 1777.81 -73.33 1840.91 0" stroke="rgba(131, 197, 190, 0.5)" stroke-width="2"></path><path d="M3240 475.2C3207.68 475.2 3177.69 510.71 3177.69 540C3177.69 564.71 3208.13 583.2 3240 583.2C3275.29 583.2 3312 565.07 3312 540C3312 511.07 3274.83 475.2 3240 475.2" stroke="rgba(131, 197, 190, 0.5)" stroke-width="2"></path><path d="M2700 894.86C2520.98 894.86 2295 986.88 2295 1080C2295 1173.36 2521.39 1267.83 2700 1267.83C2793.57 1267.83 2839.35 1173.67 2839.35 1080C2839.35 987.19 2793.15 894.86 2700 894.86" stroke="rgba(131, 197, 190, 0.5)" stroke-width="2"></path><path d="M3240 1570.26C3198.38 1570.26 3167.31 1590.22 3167.31 1620C3167.31 1658.05 3191.29 1705.91 3240 1705.91C3362.64 1705.91 3510 1654.45 3510 1620C3510 1586.62 3369.73 1570.26 3240 1570.26" stroke="rgba(131, 197, 190, 0.5)" stroke-width="2"></path><path d="M316.96 0C316.96 121.11 89.07 394.05 0 394.05C-69.41 394.05 -87.83 109.19 0 0C70.65 -87.83 316.96 -75.91 316.96 0" stroke="rgba(131, 197, 190, 0.5)" stroke-width="2"></path><path d="M1080 244.69C915 244.69 753.75 67.97 753.75 0C753.75 -54.38 916.88 0 1080 0C1254 0 1428 -55.05 1428 0C1428 67.3 1252.12 244.69 1080 244.69" stroke="rgba(131, 197, 190, 0.5)" stroke-width="2"></path><path d="M1482.13 540C1563.02 432.73 1548.75 308.57 1620 308.57C1693.04 308.57 1710.41 416.32 1770.7 540C1898.44 802.04 1855.66 829.11 1996.07 1080C2050.31 1176.91 2062.05 1182.23 2160 1235.59C2414.01 1373.97 2441.05 1330.35 2700 1463.48C2814.9 1522.55 2817.03 1527.79 2907.69 1620C3087.03 1802.41 3035.06 1970.44 3240 2012.73C3471.21 2060.44 3518.99 1924.12 3780 1800C3931.93 1727.75 3920.81 1706.41 4065.88 1620C4190.81 1545.59 4234.54 1478.36 4320 1478.36C4361.6 1478.36 4320 1549.18 4320 1620C4320 1890 4455 2025 4320 2160C4185 2295 4050 2160 3780 2160C3510 2160 3510 2160 3240 2160C2970 2160 2970 2160 2700 2160C2430 2160 2430 2160 2160 2160C1890 2160 1890 2160 1620 2160C1395 2160 1261.87 2282.5 1170 2160C1059.37 2012.5 1243.9 1880.1 1215 1620C1198.9 1475.1 1143.1 1350 1080 1350C1018.76 1350 981.3 1477.69 966.32 1620C938.67 1882.69 1110.53 2013.34 994.74 2160C897.37 2283.34 767.37 2160 540 2160C270 2160 135 2295 0 2160C-135 2025 0 1890 0 1620C0 1350 0 1350 0 1080C0 874.29 -116.74 760.29 0 668.57C153.26 548.15 295.74 575.18 540 655.71C835.74 753.21 840.02 1054.09 1080 1024.62C1311.08 996.24 1293.02 790.76 1482.13 540" stroke="rgba(131, 197, 190, 0.5)" stroke-width="2"></path><path d="M2481.92 540C2481.92 460.52 2590.96 382.5 2700 382.5C2809.04 382.5 2918.08 460.52 2918.08 540C2918.08 620.27 2809.04 702 2700 702C2590.96 702 2481.92 620.27 2481.92 540" stroke="rgba(131, 197, 190, 0.5)" stroke-width="2"></path><path d="M3240 205.2C3146.15 205.2 3093.43 64.89 3093.43 0C3093.43 -37.71 3166.72 0 3240 0C3405.48 0 3570.97 -47.14 3570.97 0C3570.97 55.46 3384.92 205.2 3240 205.2" stroke="rgba(131, 197, 190, 0.5)" stroke-width="2"></path><path d="M3612 540C3729.81 427.87 3693 249.23 3780 249.23C3869.2 249.23 3955.98 381.48 3964.39 540C3978.02 796.87 3901.37 812.51 3824.08 1080C3809.17 1131.6 3825.64 1153.75 3780 1178.18C3533.6 1310.07 3474.67 1421.59 3240 1392.63C3076.93 1372.5 2984.52 1236.73 2984.52 1080C2984.52 922.01 3088.14 893.89 3240 763.2C3401.88 623.89 3459.81 684.86 3612 540" stroke="rgba(131, 197, 190, 0.5)" stroke-width="2"></path><path d="M23.48 0C23.48 8.97 6.6 29.19 0 29.19C-5.14 29.19 -6.51 8.09 0 0C5.23 -6.51 23.48 -5.62 23.48 0" stroke="rgba(131, 197, 190, 0.5)" stroke-width="2"></path><path d="M1080 33.75C1057.24 33.75 1035 9.38 1035 0C1035 -7.5 1057.5 0 1080 0C1104 0 1128 -7.59 1128 0C1128 9.28 1103.74 33.75 1080 33.75" stroke="rgba(131, 197, 190, 0.5)" stroke-width="2"></path><path d="M0 990C153.46 990 378 986.33 378 1080C378 1203.15 112.99 1423.64 0 1423.64C-76.01 1423.64 0 1251.82 0 1080C0 1035 -35.54 990 0 990" stroke="rgba(131, 197, 190, 0.5)" stroke-width="2"></path><path d="M1404 1080C1404 940 1526.6 800 1620 800C1702.1 800 1755 940 1755 1080C1755 1220 1702.1 1360 1620 1360C1526.6 1360 1404 1220 1404 1080" stroke="rgba(131, 197, 190, 0.5)" stroke-width="2"></path><path d="M3129.68 1080C3129.68 1011.78 3170.9 943.2 3240 943.2C3354.31 943.2 3496.5 1011.95 3496.5 1080C3496.5 1147.85 3354.53 1215 3240 1215C3171.12 1215 3129.68 1147.68 3129.68 1080" stroke="rgba(131, 197, 190, 0.5)" stroke-width="2"></path><path d="M1854 1620C1970.13 1502.66 2002.58 1464.41 2160 1464.41C2364.22 1464.41 2387.35 1515.3 2577.27 1620C2657.35 1664.15 2643.93 1686.92 2700 1762.11C2845.29 1956.92 2980 2033.73 2980 2160C2980 2232.67 2840 2160 2700 2160C2490 2160 2476.18 2197.37 2280 2160C2206.18 2145.94 2227.87 2057.14 2160 2057.14C2047.87 2057.14 2045.64 2136.07 1920 2160C1775.64 2187.5 1770 2160 1620 2160C1582.5 2160 1545 2183.18 1545 2160C1545 2108.18 1578.38 2082.74 1620 2010C1732.88 1812.74 1700.13 1775.46 1854 1620" stroke="rgba(131, 197, 190, 0.5)" stroke-width="2"></path><path d="M162 2160C162 2100.29 386.52 1937.65 540 1937.65C625.25 1937.65 639.47 2081.06 639.47 2160C639.47 2192.24 589.74 2160 540 2160C351 2160 162 2211.47 162 2160" stroke="rgba(131, 197, 190, 0.5)" stroke-width="2"></path><path d="M3532.5 2160C3532.5 2131.26 3660.21 2050 3780 2050C3871.31 2050 3954.71 2130.21 3954.71 2160C3954.71 2185.21 3867.35 2160 3780 2160C3656.25 2160 3532.5 2186.26 3532.5 2160" stroke="rgba(131, 197, 190, 0.5)" stroke-width="2"></path></g><defs><mask id="SvgjsMask1014"><rect width="4096" height="2160" fill="#ffffff"></rect></mask></defs></svg>